/* XPM */
static char *bitcoin64[] = {
/* columns rows colors chars-per-pixel */
"49 48 67 1 ",
"  c #371E1F",
". c #3E1E1F",
"X c #231F20",
"o c #261F20",
"O c #291F20",
"+ c #301E20",
"@ c #242021",
"# c #252122",
"$ c #262223",
"% c #272324",
"& c #272425",
"* c #282425",
"= c #292526",
"- c #2A2627",
"; c #2C2829",
": c #2D292A",
"> c #302B2C",
", c #302C2D",
"< c #302D2E",
"1 c #312D2E",
"2 c #322E2F",
"3 c #343031",
"4 c #353132",
"5 c #363233",
"6 c #383536",
"7 c #3A3637",
"8 c #3E3A3B",
"9 c #441D1F",
"0 c #4B1D1F",
"q c #521C1E",
"w c #591C1E",
"e c #661B1E",
"r c #601C1E",
"t c #6D1B1D",
"y c #741B1D",
"u c #7B1A1D",
"i c #413E3E",
"p c #423E3F",
"a c #474344",
"s c #494546",
"d c #4C4849",
"f c #4D4A4A",
"g c #4F4C4D",
"h c #565354",
"j c #595657",
"k c #605D5E",
"l c #676465",
"z c #757273",
"x c #757373",
"c c #811A1D",
"v c #88191C",
"b c #8F191C",
"n c #838181",
"m c #8A8888",
"M c #918F8F",
"N c #9E9C9C",
"B c #9E9D9D",
"V c #ACABAB",
"C c #BAB9B9",
"Z c #BDBCBD",
"A c #C8C7C7",
"S c #CBCACA",
"D c #D6D5D5",
"F c gray89",
"G c #F1F1F1",
"H c white",
"J c None",
/* pixels */
"JJJJJJJJJJJJJJJJJJJXXXXXXXXXXXJJJJJJJJJJJJJJJJJJJ",
"JJJJJJJJJJJJJJJJXXXXXXXXXXXXXXXXXJJJJJJJJJJJJJJJJ",
"JJJJJJJJJJJJJJXXXXXXXXXXXXXXXXXXXXXJJJJJJJJJJJJJJ",
"JJJJJJJJJJJJXXXXXX8zBAGHHHFABz,XXXXXXJJJJJJJJJJJJ",
"JJJJJJJJJJXXXXX,zDHHHHHHHHHHHHHAzXXXXXXJJJJJJJJJJ",
"JJJJJJJJJXXXXXMGHHHHHHHHHHHHHHHHHFzXXXXXJJJJJJJJJ",
"JJJJJJJJXXXXjFHHHHHHHHHHHHHHHHHHHHHDdXXXXJJJJJJJJ",
"JJJJJJJXXXXMHHHF8XX8jBFCnVFHHHHHHHHHHzXXXXJJJJJJJ",
"JJJJJJXXXXVHHHHHlXXXXXXdXXXdBGHHHHHHHHVXXXXJJJJJJ",
"JJJJJXXXXVHHHHHAAXXre9XXXXXXX>BHHHHHHHHVXXXXJJJJJ",
"JJJJXXXXVHHGBdXXXXXwbbvwOXXO+XXzHHHHHHHHMXXXJJJJJ",
"JJJJXXXzHHM>XXX OXXebbbbv0X9brOXnHHHHHHHHlXXXJJJJ",
"JJJXXX8GHjXXX.vbbcubcyyyvbbbbbtXXFHHHHHHHG,XXXJJJ",
"JJJXXXAHHHB>XX ubvq+XXXXXX.qtbb.XnHHHHHHHHVXXXJJJ",
"JJXXXjHHHHHGM>X0eOXX@<33XXXXXOqrX8HHHHHHHHH8XXXJJ",
"JJXXXAHHHHHHHGXXXX-mHHHHHGNf$XXXXXFHHHHHHHHVXXXJJ",
"JJXXdHHHHHHHHFXXXpGHGVFHHHHHHm-XXXZHHHHHHHHH8XXJJ",
"JXXXBHHHHHHHHVXX2HDz,nHHHHHHHHHxXXpDHHHHHHHHnXXXJ",
"JXXXFHHHHGFHHzXXACXXnHHHHHHHHHHHS$X,DHHHHHHHAXXXJ",
"JXX8HHHHHG,XXXX:HHMFHHHHHHHHHHHHHGsX,DHHHHHHHXXXJ",
"JXXjHHHHHHD,XoXjHHHHHHHHHHHHHHHHHHGdXdGHHHHHHdXXJ",
"XXXMHHHHHHHnXXXdHHHHHHHHHHHHHHHHHHHG8XdHHHHHHlXXJ",
"XXXMHHHHHHF,XXXXjDHHHHHHHHHHHHHHHHHHD,XzHHHHHMXXX",
"XXXMHHHHHHjX:XX#X,CHHHHHHHHHHHHHHHHHHCXXVHHHHMXXX",
"XXXMHHHHHGVFAXXX3XXVHHHHHHHHHHHHHHHHHHMX,FHHHMXXX",
"XXXMHHHHHHHHAX+OXdX,DHHHHHHHHHHHHHHHHHHjXjHHHMXXX",
"XXXMHHHHHHHHAX.rXXgXdHHHHHHHHHHHHHHHHHHFXXCHHjXXJ",
"JXXjHHHHHHHHAX.b9Xh,XBHHHHHHHHHHHHHHHHHHMX8HHdXXJ",
"JXX,HHHHHHHHAX.bcOXmX8HHHHHHHHHHHHHHHHHHG,XVHXXXJ",
"JXXXDHHHHHHHAX.bb0Xz,XDHHHHHHHHHHHHHHHHHHMX8CXXXJ",
"J4XXBHHHHHHHAX.bbyXjzXBHHHHHHHHHHHHHHHHHHG,XkXXXJ",
"JJXX8HHHHHHHAX.bbyXjMXMHHHHHHHHHHHHHHHHHHHzX*XXJJ",
"JJXXXAHHHHHHAX.bbwXlMXMHHHHHHHHHHHHHHHHHHHDXXXXJJ",
"JJ6XXjHHHHHHAX.buOXVlXBHHHHHHHHHHHHHHHHHHHHdXXXJJ",
"JJJXXXCHHHHHAX+qOXjFXXFHHHHHHHHHHHHHHHHHHHH8XXJJJ",
"JJJ5XX,GHHHHAXXXXjGjXjHHHHHHHHHHHHHHHHHHHHMX@XJJJ",
"JJJJ@XXlHHHHAX8lVHzX,FHHHHHHHHHHHHHHHHHHHDXXXJJJJ",
"JJJJaXXXMHHHHHHHGlXXVHHHHHHHHHHHHHHHHHHHG,XXJJJJJ",
"JJJJJ1XXXVHHHHFM,XXVHHHHHHHHHHHHHHHHHHHGdXXXJJJJJ",
"JJJJJJ%XXXBGVlXXXdDHHHHHHHHHHHHHHHHHHHGdX@XJJJJJJ",
"JJJJJJJ$XXXXXXXjVHHHHHHHHHHHHHHHHHHHHA,X@XJJJJJJJ",
"JJJJJJJJ*XXX,BFHHHHHHHHHHHHHHHHHHHHHMXXXXJJJJJJJJ",
"JJJJJJJJJ-XXXjAHHHHHHHHHHHHHHHHHHHV8XXXXJJJJJJJJJ",
"JJJJJJJJJJiXXXXjCHHHHHHHHHHHHHHGV8XX@@JJJJJJJJJJJ",
"JJJJJJJJJJJJ;XXXX8zCGHHHHHHHDBlXXX@X@JJJJJJJJJJJJ",
"JJJJJJJJJJJJJJ=X@XXXXXjjjjdXXXXXXX&JJJJJJJJJJJJJJ",
"JJJJJJJJJJJJJJJJ7@XXXXXXXXXXXXX*;JJJJJJJJJJJJJJJJ",
"JJJJJJJJJJJJJJJJJJJJ2&%%%$*-1JJJJJJJJJJJJJJJJJJJJ"
};
