/* XPM */
static char *bitcoin16[] = {
/* columns rows colors chars-per-pixel */
"17 16 108 2 ",
"   c #3D1D1F",
".  c #231F20",
"X  c #242021",
"o  c #262223",
"O  c #282425",
"+  c #292526",
"@  c #2F2A2B",
"#  c #34292A",
"$  c #302C2D",
"%  c #322E2F",
"&  c #352E2F",
"*  c #3A2C2D",
"=  c #322F30",
"-  c #353132",
";  c #363334",
":  c #393637",
">  c #3B3738",
",  c #3C3839",
"<  c #3E3B3B",
"1  c #3F3C3D",
"2  c #431D1E",
"3  c #491D1E",
"4  c #481D1F",
"5  c #4F1C1E",
"6  c #501C1E",
"7  c #531C1E",
"8  c #541C1E",
"9  c #581C1E",
"0  c #751A1C",
"q  c #7F191C",
"w  c #442223",
"e  c #4B3536",
"r  c #4B3638",
"t  c #403C3D",
"y  c #413E3F",
"u  c #494647",
"i  c #4A4647",
"p  c #4B4748",
"a  c #4C4849",
"s  c #544849",
"d  c #504D4E",
"f  c #514E4F",
"g  c #535050",
"h  c #535051",
"j  c #565354",
"k  c #575455",
"l  c #585556",
"z  c #5A5757",
"x  c #5B5859",
"c  c #5C595A",
"v  c #5D595A",
"b  c #5F5C5D",
"n  c #605D5E",
"m  c #615E5F",
"M  c #625E5E",
"N  c #636060",
"B  c #646162",
"V  c #656263",
"C  c #696667",
"Z  c #6C696A",
"A  c #6D6B6B",
"S  c #706D6E",
"D  c #706E6E",
"F  c #767374",
"G  c #777474",
"H  c #777576",
"J  c #7C7A7B",
"K  c #7E7C7C",
"L  c #807D7E",
"P  c #8C8A8A",
"I  c #8D8B8C",
"U  c #8E8C8C",
"Y  c #908E8F",
"T  c #939292",
"R  c #959393",
"E  c #959394",
"W  c #999898",
"Q  c #A09E9E",
"!  c #AAA8A8",
"~  c #ACABAB",
"^  c #ADACAC",
"/  c #B7B5B5",
"(  c #B8B7B7",
")  c #BAB8B9",
"_  c #BBBABA",
"`  c #C0BFBF",
"'  c #C1C0C0",
"]  c #C7C6C7",
"[  c #CCCBCB",
"{  c #CECDCD",
"}  c #D1D0D0",
"|  c #D4D3D3",
" . c #D5D5D5",
".. c #DAD9D9",
"X. c gray86",
"o. c #DDDCDC",
"O. c #E8E7E7",
"+. c #E9E9E9",
"@. c #EBEAEA",
"#. c #ECECEC",
"$. c #EFEFEF",
"%. c gray95",
"&. c gray96",
"*. c gray98",
"=. c #FBFBFB",
"-. c #FDFDFD",
";. c white",
":. c None",
/* pixels */
":.:.:.:.:.u y l g - z :.:.:.:.:.:.",
":.:.:.+ I @.;.;.;.;.{ v > :.:.:.:.",
":.:.% } &.1 e l B ( ;.;.T . :.:.:.",
":.o ) A w 2 q 0 5 9 E ;.;.L > :.:.",
":.K ;./ r 4 M S s 3 * =.;.&.- :.:.",
"z o.-.=.d U W =.;...k ! ;.;.P Z :.",
"= ;.-.c @ %.=.;.;.;.-.F ( ;.' . :.",
"< ;.-.H . C &.;.;.;.;.*.N X.... :.",
": ;.;.#.  & J ;.;.;.;.;.+.m [ . :.",
"i $.;.#.6 7 p $.;.;.;.;.;.Y V h :.",
"D Q ;.#.6 8 b X.;.;.;.;.;.@.O :.:.",
":.- #.#.# G x =.;.;.;.;.;. .o :.:.",
":.n j +.^ x | ;.;.;.;.;.O.t :.:.:.",
":.:.f X R &.;.;.;.;.;._ ; :.:.:.:.",
":.:.:.:.$ D ~ ] ` E a , :.:.:.:.:.",
":.:.:.:.:.:.:.:.:.:.:.:.:.:.:.:.:."
};
