/* XPM */
static char *bitcoin128[] = {
/* columns rows colors chars-per-pixel */
"128 127 65 1 ",
"  c #371E1F",
". c #3E1E1F",
"X c #231F20",
"o c #281F20",
"O c #291F20",
"+ c #301E20",
"@ c #252122",
"# c #262223",
"$ c #292526",
"% c #2A2627",
"& c #2B2728",
"* c #302C2D",
"= c #363233",
"- c #373334",
"; c #3C393A",
": c #3E3A3B",
"> c #3F3B3C",
", c #441D1F",
"< c #4B1D1F",
"1 c #521C1E",
"2 c #591C1E",
"3 c #661B1E",
"4 c #601C1E",
"5 c #6D1B1D",
"6 c #741B1D",
"7 c #7B1A1D",
"8 c #474444",
"9 c #494546",
"0 c #4B4849",
"q c #4C4849",
"w c #514E4F",
"e c #524F50",
"r c #565354",
"t c #595657",
"y c #605D5E",
"u c #666263",
"i c #676465",
"p c #676565",
"a c #686666",
"s c #6B6869",
"d c #6E6C6C",
"f c #757273",
"g c #757373",
"h c #787677",
"j c #7D7B7B",
"k c #811A1D",
"l c #88191C",
"z c #8F191C",
"x c #838181",
"c c #918F8F",
"v c #949293",
"b c #9B999A",
"n c #9E9D9D",
"m c #9F9D9D",
"M c #A3A2A2",
"N c #ACABAB",
"B c #BAB9B9",
"V c #C0BEBE",
"C c #C8C7C7",
"Z c #D6D5D5",
"A c #D7D7D7",
"S c gray89",
"D c #F1F1F1",
"F c white",
"G c None",
/* pixels */
"GGGGGGGGGGGGGGGGGGGGGGGGGGGGGGGGGGGGGGGGGGGGGGGGGGGGGGGGGGGGXXXXXXXGGGGGGGGGGGGGGGGGGGGGGGGGGGGGGGGGGGGGGGGGGGGGGGGGGGGGGGGGGGGG",
"GGGGGGGGGGGGGGGGGGGGGGGGGGGGGGGGGGGGGGGGGGGGGGGGGGGGXXXXXXXXXXXXXXXXXXXXXXXGGGGGGGGGGGGGGGGGGGGGGGGGGGGGGGGGGGGGGGGGGGGGGGGGGGGG",
"GGGGGGGGGGGGGGGGGGGGGGGGGGGGGGGGGGGGGGGGGGGGGGGXXXXXXXXXXXXXXXXXXXXXXXXXXXXXXXXXGGGGGGGGGGGGGGGGGGGGGGGGGGGGGGGGGGGGGGGGGGGGGGGG",
"GGGGGGGGGGGGGGGGGGGGGGGGGGGGGGGGGGGGGGGGGGGGXXXXXXXXXXXXXXXXXXXXXXXXXXXXXXXXXXXXXXXGGGGGGGGGGGGGGGGGGGGGGGGGGGGGGGGGGGGGGGGGGGGG",
"GGGGGGGGGGGGGGGGGGGGGGGGGGGGGGGGGGGGGGGGGXXXXXXXXXXXXXXXXXXXXXXXXXXXXXXXXXXXXXXXXXXXXXGGGGGGGGGGGGGGGGGGGGGGGGGGGGGGGGGGGGGGGGGG",
"GGGGGGGGGGGGGGGGGGGGGGGGGGGGGGGGGGGGGGXXXXXXXXXXXXXXXXXXXXXXXXXXXXXXXXXXXXXXXXXXXXXXXXXXGGGGGGGGGGGGGGGGGGGGGGGGGGGGGGGGGGGGGGGG",
"GGGGGGGGGGGGGGGGGGGGGGGGGGGGGGGGGGGGXXXXXXXXXXXXXXXXXXXXXXXXXXXXXXXXXXXXXXXXXXXXXXXXXXXXXXXGGGGGGGGGGGGGGGGGGGGGGGGGGGGGGGGGGGGG",
"GGGGGGGGGGGGGGGGGGGGGGGGGGGGGGGGGGXXXXXXXXXXXXXXXXXXXXXXXtttcccccccttqXXXXXXXXXXXXXXXXXXXXXXXGGGGGGGGGGGGGGGGGGGGGGGGGGGGGGGGGGG",
"GGGGGGGGGGGGGGGGGGGGGGGGGGGGGGGGXXXXXXXXXXXXXXXXXXXqxnCDFFFFFFFFFFFFFFFDCnfqXXXXXXXXXXXXXXXXXXXGGGGGGGGGGGGGGGGGGGGGGGGGGGGGGGGG",
"GGGGGGGGGGGGGGGGGGGGGGGGGGGGGGGXXXXXXXXXXXXXXXXqxBFFFFFFFFFFFFFFFFFFFFFFFFFFDBx:XXXXXXXXXXXXXXXXGGGGGGGGGGGGGGGGGGGGGGGGGGGGGGGG",
"GGGGGGGGGGGGGGGGGGGGGGGGGGGGGXXXXXXXXXXXXXXXqnSFFFFFFFFFFFFFFFFFFFFFFFFFFFFFFFFFSnqXXXXXXXXXXXXXXXGGGGGGGGGGGGGGGGGGGGGGGGGGGGGG",
"GGGGGGGGGGGGGGGGGGGGGGGGGGGGXXXXXXXXXXXXX*xZFFFFFFFFFFFFFFFFFFFFFFFFFFFFFFFFFFFFFFFZf*XXXXXXXXXXXXXGGGGGGGGGGGGGGGGGGGGGGGGGGGGG",
"GGGGGGGGGGGGGGGGGGGGGGGGGGXXXXXXXXXXXXX:NDFFFFFFFFFFFFFFFFFFFFFFFFFFFFFFFFFFFFFFFFFFFDn:XXXXXXXXXXXXXGGGGGGGGGGGGGGGGGGGGGGGGGGG",
"GGGGGGGGGGGGGGGGGGGGGGGGGXXXXXXXXXXXX:NFFFFFFFFFFFFFFFFFFFFFFFFFFFFFFFFFFFFFFFFFFFFFFFFFN:XXXXXXXXXXXXGGGGGGGGGGGGGGGGGGGGGGGGGG",
"GGGGGGGGGGGGGGGGGGGGGGGGXXXXXXXXXXX:NFFFFFFFFFFFFFFFFFFFFFFFFFFFFFFFFFFFFFFFFFFFFFFFFFFFFFN*XXXXXXXXXXXGGGGGGGGGGGGGGGGGGGGGGGGG",
"GGGGGGGGGGGGGGGGGGGGGGXXXXXXXXXXXXcDFFFFFFFFFFFFFFFFFFFFFFFFFFFFFFFFFFFFFFFFFFFFFFFFFFFFFFFDxXXXXXXXXXXXXGGGGGGGGGGGGGGGGGGGGGGG",
"GGGGGGGGGGGGGGGGGGGGGXXXXXXXXXXXtZFFFFFFFFFFFFFFFFFFFFFFFFFFFFFFFFFFFFFFFFFFFFFFFFFFFFFFFFFFFZqXXXXXXXXXXXGGGGGGGGGGGGGGGGGGGGGG",
"GGGGGGGGGGGGGGGGGGGGXXXXXXXXXXXnFFFFFFFFFFFFFFFFFFFFFFFFFFFFFFFFFFFFFFFFFFFFFFFFFFFFFFFFFFFFFFFcXXXXXXXXXXXGGGGGGGGGGGGGGGGGGGGG",
"GGGGGGGGGGGGGGGGGGGXXXXXXXXXXqZFFFFFFFFFFFFFSCCCDFFFFFFFFFFFFFFFFFFFFFFFFFFFFFFFFFFFFFFFFFFFFFFFZ:XXXXXXXXXXGGGGGGGGGGGGGGGGGGGG",
"GGGGGGGGGGGGGGGGGGXXXXXXXXXXfDFFFFFFFFFFNtqXXXXXXX:tcBDFFFFFScBSFFFFFFFFFFFFFFFFFFFFFFFFFFFFFFFFFDiXXXXXXXXXXGGGGGGGGGGGGGGGGGGG",
"GGGGGGGGGGGGGGGGGXXXXXXXXXXnFFFFFFFFFFFFCXXXXXXXXXXXXXXqcZFFFxXX:icCFFFFFFFFFFFFFFFFFFFFFFFFFFFFFFFcXXXXXXXXXXGGGGGGGGGGGGGGGGGG",
"GGGGGGGGGGGGGGGGXXXXXXXXX*NFFFFFFFFFFFFFFfXXXXXXXXXXXXXXXX:nDFqXXXXXXiNSFFFFFFFFFFFFFFFFFFFFFFFFFFFFNXXXXXXXXXXGGGGGGGGGGGGGGGGG",
"GGGGGGGGGGGGGGGXXXXXXXXX*ZFFFFFFFFFFFFFFFD*XXXXXXXXXXXXXXXXXXfC*XXXXXXXXtNFFFFFFFFFFFFFFFFFFFFFFFFFFFC*XXXXXXXXXGGGGGGGGGGGGGGGG",
"GGGGGGGGGGGGGGXXXXXXXXX*ZFFFFFFFFFFFFFFFFFBXXXXXXXXXXXXXXXXXXXXXXXXXXXXXXX*cDFFFFFFFFFFFFFFFFFFFFFFFFFZ*XXXXXXXXXGGGGGGGGGGGGGGG",
"GGGGGGGGGGGGGGXXXXXXXX*ZFFFFFFFFFFFFFFFFFFFtXXXXOl64<+XXXXXXXXXXXXXXXXXXXXXX*cDFFFFFFFFFFFFFFFFFFFFFFFFZ*XXXXXXXXGGGGGGGGGGGGGGG",
"GGGGGGGGGGGGGXXXXXXXX*ZFFFFFFFFFFFFFFFFFFFFSXXXXX2zzzz74+XXXXXXXXXXXXXXXXXXXXX*BFFFFFFFFFFFFFFFFFFFFFFFFZ*XXXXXXXXGGGGGGGGGGGGGG",
"GGGGGGGGGGGGXXXXXXXXXZFFFFFFFFFFFFFFZNcitttc:XXXX+zzzzzzz7<OXXXXXXXXXXXXXXXXXXXXiDFFFFFFFFFFFFFFFFFFFFFFFNXXXXXXXXXGGGGGGGGGGGGG",
"GGGGGGGGGGGXXXXXXXXXNFFFFFFFFFFFDNi*XXXXXXXXXXXXXXkzzzzzzzzl2OXXXXXXXXXX+XXXXXXXXqDFFFFFFFFFFFFFFFFFFFFFFFNXXXXXXXXXGGGGGGGGGGGG",
"GGGGGGGGGGGXXXXXXXXxFFFFFFFFFFZfXXXXXXXXXXXXXXXXXX6zzzzzzzzzzl2OXXXXXXXX4k<XXXXXXX*ZFFFFFFFFFFFFFFFFFFFFFFFfXXXXXXXXGGGGGGGGGGGG",
"GGGGGGGGGGXXXXXXXXtFFFFFFFFFCtXXXXXXXXXXXXXXXXXXXXkzzzzzzzzzzzzl<XXXXXXX3zz7.XXXXXXqDFFFFFFFFFFFFFFFFFFFFFFFqXXXXXXXXGGGGGGGGGGG",
"GGGGGGGGGXXXXXXXX*DFFFFFFFStXXXXXXXXXXXXXXXXXXXXX zzzzzzzzzzzzzzz6 XXXXXlzzzz4XXXXXXiFFFFFFFFFFFFFFFFFFFFFFFS*XXXXXXXXGGGGGGGGGG",
"GGGGGGGGGXXXXXXXXCFFFFFFFcXXXXXXXXXXX.246631+XXX.6zzzzzzzzzzzzzzzzz2+X,6zzzzzz7OXXXXXBFFFFFFFFFFFFFFFFFFFFFFFBXXXXXXXXGGGGGGGGGG",
"GGGGGGGGXXXXXXXXxFFFFFFCqXXXXXXXXX<5zzzzzzzzzk36zzzzzzzzzzzzzzzzzzzzzzzzzzzzzzz7XXXXX:FFFFFFFFFFFFFFFFFFFFFFFFiXXXXXXXXGGGGGGGGG",
"GGGGGGGGXXXXXXX:DFFFFFZ*XXXXXXXXX,kzzzzzzzzzzzzzzzzzzzzzzzzzzzzzzzzzzzzzzzzzzzzz4XXXXXcFFFFFFFFFFFFFFFFFFFFFFFD*XXXXXXXGGGGGGGGG",
"GGGGGGGXXXXXXXXCFFFFFFFDc*XXXXXXXXX<lzzzzzzzzzzzzzl52,........1246kzzzzzzzzzzzzzz.XXXX:FFFFFFFFFFFFFFFFFFFFFFFFBXXXXXXXXGGGGGGGG",
"GGGGGGGXXXXXXXiFFFFFFFFFFDc*XXXXXXXXO2zzzzzzzzzz3,XXXXXXXXXXXXXXXXXO.15lzzzzzzzzz6XXXXXNFFFFFFFFFFFFFFFFFFFFFFFFtXXXXXXXGGGGGGGG",
"GGGGGGXXXXXXXXSFFFFFFFFFFFFDc*XXXXXXXX 7zzzzzl2OXXXXXXXXXXXXXXXXXXXXXXXX 17zzzzzzz.XXXXiFFFFFFFFFFFFFFFFFFFFFFFFZXXXXXXXXGGGGGGG",
"GGGGGGXXXXXXXxFFFFFFFFFFFFFFFDc*XXXXXXXOlzzz5+XXXXXXXXXXXXXXXXXXXXXXXXXXXXX+17zzzz5XXXXXDFFFFFFFFFFFFFFFFFFFFFFFFfXXXXXXXGGGGGGG",
"GGGGGXXXXXXX*DFFFFFFFFFFFFFFFFFDxXXXXXXX2zl<XXXXXXXXXXXXXXXXXXXXXXXXXXXXXXXXXX 3lzzOXXXXNFFFFFFFFFFFFFFFFFFFFFFFFSXXXXXXXXGGGGGG",
"GGGGGXXXXXXXcFFFFFFFFFFFFFFFFFFFFSiXXXXX.k XXXXXXXXX;amCCCCCCCcce>XXXXXXXXXXXXXXO2l<XXXXfFFFFFFFFFFFFFFFFFFFFFFFFFfXXXXXXXGGGGGG",
"GGGGXXXXXXXXSFFFFFFFFFFFFFFFFFFFFFFCXXXXXOXXXXXXX%dDFFFFFFFFFFFFFFFZMr&XXXXXXXXXXXO.XXXX:FFFFFFFFFFFFFFFFFFFFFFFFFSXXXXXXXXGGGGG",
"GGGGXXXXXXXfFFFFFFFFFFFFFFFFFFFFFFFFXXXXXXXXXXX@gFFFFFFFFFFFFFFFFFFFFFFAa&XXXXXXXXXXXXXXXDFFFFFFFFFFFFFFFFFFFFFFFFFiXXXXXXXGGGGG",
"GGGGXXXXXXXZFFFFFFFFFFFFFFFFFFFFFFFZXXXXXXXXXX-SFFFFFFFFFFFFFFFFFFFFFFFFFFVwXXXXXXXXXXXXXCFFFFFFFFFFFFFFFFFFFFFFFFFCXXXXXXXGGGGG",
"GGGXXXXXXXqFFFFFFFFFFFFFFFFFFFFFFFFCXXXXXXXXXyFFFFFFFFFFFSFFFFFFFFFFFFFFFFFFSs#XXXXXXXXXXnFFFFFFFFFFFFFFFFFFFFFFFFFF:XXXXXXXGGGG",
"GGGXXXXXXXnFFFFFFFFFFFFFFFFFFFFFFFFcXXXXXXXXuFFFFFFFFFSctSFFFFFFFFFFFFFFFFFFFFSuXXXXXXXXXcFFFFFFFFFFFFFFFFFFFFFFFFFFnXXXXXXXGGGG",
"GGGXXXXXXXDFFFFFFFFFFFFFFFFFFFFFFFFtXXXXXXXuFFFFFFFFBiXqDFFFFFFFFFFFFFFFFFFFFFFFZ0XXXXXXX-DFFFFFFFFFFFFFFFFFFFFFFFFFSXXXXXXXGGGG",
"GGXXXXXXXiFFFFFFFFFFFFFFFFFFFFFFFFFXXXXXXX=DFFFFFSc:XXqDFFFFFFFFFFFFFFFFFFFFFFFFFFn%XXXXXX*ZFFFFFFFFFFFFFFFFFFFFFFFFFqXXXXXXXGGG",
"GGXXXXXXXnFFFFFFFFFFFFFFFFFFFFFFFFBXXXXXXXCFFFFCiXXXXqDFFFFFFFFFFFFFFFFFFFFFFFFFFFFSeXXXXXX*BFFFFFFFFFFFFFFFFFFFFFFFFnXXXXXXXGGG",
"GGXXXXXXXSFFFFFFFFFFFFFFFFFFFFFFFFfXXXXXXtFFFN:XXXXX*SFFFFFFFFFFFFFFFFFFFFFFFFFFFFFFFjXXXXXXXNFFFFFFFFFFFFFFFFFFFFFFFZXXXXXXXGGG",
"GGXXXXXX:FFFFFFFFFFFFFFFFFFFFFFFFF*XXXXXXBFFFxXXXXXXxFFFFFFFFFFFFFFFFFFFFFFFFFFFFFFFFFN$XXXXXXNFFFFFFFFFFFFFFFFFFFFFFF:XXXXXXGGG",
"GXXXXXXXfFFFFFFFFFFFFFFFntccccBCCvXXXXXX*FFFFCXXXXX*DFFFFFFFFFFFFFFFFFFFFFFFFFFFFFFFFFFZ&XXXXXXNFFFFFFFFFFFFFFFFFFFFFFfXXXXXXXGG",
"GXXXXXXXNFFFFFFFFFFFFFFFDqXXXXXXXXXXXXXXfFFFFFN*XXiSFFFFFFFFFFFFFFFFFFFFFFFFFFFFFFFFFFFFD9XXXXXXNFFFFFFFFFFFFFFFFFFFFFnXXXXXXXGG",
"GXXXXXXXSFFFFFFFFFFFFFFFFD*XXXXXXXXXXXXXnFFFFFFFFFFFFFFFFFFFFFFFFFFFFFFFFFFFFFFFFFFFFFFFFDqXXXXXXCFFFFFFFFFFFFFFFFFFFFCXXXXXXXGG",
"GXXXXXXXFFFFFFFFFFFFFFFFFFZ*XXXXXXXoXXXXCFFFFFFFFFFFFFFFFFFFFFFFFFFFFFFFFFFFFFFFFFFFFFFFFFDqXXXXX*ZFFFFFFFFFFFFFFFFFFFFXXXXXXXGG",
"GXXXXXXtFFFFFFFFFFFFFFFFFFFNXXXXXXXXXXXXSFFFFFFFFFFFFFFFFFFFFFFFFFFFFFFFFFFFFFFFFFFFFFFFFFFDqXXXXX*DFFFFFFFFFFFFFFFFFFFqXXXXXXGG",
"XXXXXXXfFFFFFFFFFFFFFFFFFFFFnXXXXXXXXXXXFFFFFFFFFFFFFFFFFFFFFFFFFFFFFFFFFFFFFFFFFFFFFFFFFFFFDqXXXXXqDFFFFFFFFFFFFFFFFFFiXXXXXXXG",
"XXXXXXXcFFFFFFFFFFFFFFFFFFFFFfXXXXXXXXXXFFFFFFFFFFFFFFFFFFFFFFFFFFFFFFFFFFFFFFFFFFFFFFFFFFFFFS*XXXXXiFFFFFFFFFFFFFFFFFFcXXXXXXXG",
"XXXXXXXBFFFFFFFFFFFFFFFFFFFFFtXXXXXXXXXXSFFFFFFFFFFFFFFFFFFFFFFFFFFFFFFFFFFFFFFFFFFFFFFFFFFFFFZ*XXXXXfFFFFFFFFFFFFFFFFFnXXXXXXXG",
"XXXXXXXCFFFFFFFFFFFFFFFFFFFFBXXXXXXXXXXXtZFFFFFFFFFFFFFFFFFFFFFFFFFFFFFFFFFFFFFFFFFFFFFFFFFFFFFBXXXXXXNFFFFFFFFFFFFFFFFCXXXXXXXG",
"XXXXXXXCFFFFFFFFFFFFFFFFFFFD*XXXXXXXXXXXXXxDFFFFFFFFFFFFFFFFFFFFFFFFFFFFFFFFFFFFFFFFFFFFFFFFFFFFNXXXXXXCFFFFFFFFFFFFFFFCXXXXXXXG",
"XXXXXXXFFFFFFFFFFFFFFFFFFFFfXXXXXXXXXXXXXXX:ZFFFFFFFFFFFFFFFFFFFFFFFFFFFFFFFFFFFFFFFFFFFFFFFFFFFFfXXXXX*SFFFFFFFFFFFFFFCXXXXXXXG",
"XXXXXXXFFFFFFFFFFFFFFFFFFFCXXXXXXXXXXXXXXXXXXnFFFFFFFFFFFFFFFFFFFFFFFFFFFFFFFFFFFFFFFFFFFFFFFFFFFFtXXXXXqFFFFFFFFFFFFFFFXXXXXXXG",
"XXXXXXXFFFFFFFFFFFFFFFFFFD:XXXXXXXXXXXXXXXXXXXfFFFFFFFFFFFFFFFFFFFFFFFFFFFFFFFFFFFFFFFFFFFFFFFFFFFDqXXXXXxFFFFFFFFFFFFFFXXXXXXXG",
"XXXXXXXFFFFFFFFFFFFFFFFFFcXXX:fngXXXXXXXXXXXXXXtDFFFFFFFFFFFFFFFFFFFFFFFFFFFFFFFFFFFFFFFFFFFFFFFFFFZ*XXXXXCFFFFFFFFFFFFFXXXXXXXG",
"XXXXXXXFFFFFFFFFFFFFFFFFDtcBDFFFcXXXXXXXX@XXXXXXqDFFFFFFFFFFFFFFFFFFFFFFFFFFFFFFFFFFFFFFFFFFFFFFFFFFBXXXXX*DFFFFFFFFFFFFXXXXXXXG",
"XXXXXXXFFFFFFFFFFFFFFFFFFFFFFFFFcXXXXXXXXX*XXXXXXqDFFFFFFFFFFFFFFFFFFFFFFFFFFFFFFFFFFFFFFFFFFFFFFFFFFxXXXXXiFFFFFFFFFFFFXXXXXXXG",
"XXXXXXXFFFFFFFFFFFFFFFFFFFFFFFFFcXXXXXXXXXX8XXXXXXfFFFFFFFFFFFFFFFFFFFFFFFFFFFFFFFFFFFFFFFFFFFFFFFFFFFqXXXXXBFFFFFFFFFFSXXXXXXXG",
"XXXXXXXSFFFFFFFFFFFFFFFFFFFFFFFFcXXXX1OXXXXXhXXXXXXcFFFFFFFFFFFFFFFFFFFFFFFFFFFFFFFFFFFFFFFFFFFFFFFFFFZXXXXX:DFFFFFFFFFCXXXXXXXG",
"XXXXXXXCFFFFFFFFFFFFFFFFFFFFFFFFcXXXX26XXXXX*bXXXXXXCFFFFFFFFFFFFFFFFFFFFFFFFFFFFFFFFFFFFFFFFFFFFFFFFFFcXXXXXxFFFFFFFFFCXXXXXXXG",
"XXXXXXXCFFFFFFFFFFFFFFFFFFFFFFFFcXXXX2z2XXXXXqnXXXXX*DFFFFFFFFFFFFFFFFFFFFFFFFFFFFFFFFFFFFFFFFFFFFFFFFFFqXXXXXZFFFFFFFFNXXXXXXXG",
"XXXXXXXcFFFFFFFFFFFFFFFFFFFFFFFFcXXXX2zz.XXXXXcfXXXXXiFFFFFFFFFFFFFFFFFFFFFFFFFFFFFFFFFFFFFFFFFFFFFFFFFFZXXXXXtFFFFFFFFcXXXXXXXG",
"XXXXXXXcFFFFFFFFFFFFFFFFFFFFFFFFcXXXX2zzlOXXXX*SqXXXXXCFFFFFFFFFFFFFFFFFFFFFFFFFFFFFFFFFFFFFFFFFFFFFFFFFFxXXXXXCFFFFFFFfXXXXXXXG",
"GXXXXXXtFFFFFFFFFFFFFFFFFFFFFFFFcXXXX2zzz5XXXXXtZ*XXXX:FFFFFFFFFFFFFFFFFFFFFFFFFFFFFFFFFFFFFFFFFFFFFFFFFFD*XXXX:FFFFFFFtXXXXXXGG",
"GXXXXXX:FFFFFFFFFFFFFFFFFFFFFFFFcXXXX2zzzz,XXXXXCnXXXXXNFFFFFFFFFFFFFFFFFFFFFFFFFFFFFFFFFFFFFFFFFFFFFFFFFFnXXXXXNFFFFFFXXXXXXXGG",
"GXXXXXXXDFFFFFFFFFFFFFFFFFFFFFFFcXXXX2zzzzlOXXXXqF:XXXX:FFFFFFFFFFFFFFFFFFFFFFFFFFFFFFFFFFFFFFFFFFFFFFFFFFF:XXXX:FFFFFSXXXXXXXGG",
"GXXXXXXXCFFFFFFFFFFFFFFFFFFFFFFFcXXXX2zzzzz4XXXXXCCXXXXXNFFFFFFFFFFFFFFFFFFFFFFFFFFFFFFFFFFFFFFFFFFFFFFFFFFBXXXXXNFFFFBXXXXXXXGG",
"GXXXXXXXcFFFFFFFFFFFFFFFFFFFFFFFcXXXX2zzzzzz+XXXXtFtXXXXiFFFFFFFFFFFFFFFFFFFFFFFFFFFFFFFFFFFFFFFFFFFFFFFFFFFtXXXX:FFFFxXXXXXXXGG",
"GXXXXXXXtFFFFFFFFFFFFFFFFFFFFFFFcXXXX2zzzzzz3XXXXXSBXXXXXDFFFFFFFFFFFFFFFFFFFFFFFFFFFFFFFFFFFFFFFFFFFFFFFFFFCXXXXXNFFFqXXXXXXGGG",
"GGXXXXXXXDFFFFFFFFFFFFFFFFFFFFFFcXXXX2zzzzzzzOXXXXnF*XXXXNFFFFFFFFFFFFFFFFFFFFFFFFFFFFFFFFFFFFFFFFFFFFFFFFFFFtXXXXqFFDXXXXXXXGGG",
"GGXXXXXXXBFFFFFFFFFFFFFFFFFFFFFFcXXXX2zzzzzzz1XXXXiFfXXXXxFFFFFFFFFFFFFFFFFFFFFFFFFFFFFFFFFFFFFFFFFFFFFFFFFFFNXXXXXCFNXXXXXXXGGG",
"GGXXXXXXXfFFFFFFFFFFFFFFFFFFFFFFcXXXX2zzzzzzz6XXXX:FNXXXXtFFFFFFFFFFFFFFFFFFFFFFFFFFFFFFFFFFFFFFFFFFFFFFFFFFFF:XXXXiFiXXXXXXXGGG",
"GGGXXXXXX*FFFFFFFFFFFFFFFFFFFFFFcXXXX2zzzzzzzzXXXXXFSXXXXXFFFFFFFFFFFFFFFFFFFFFFFFFFFFFFFFFFFFFFFFFFFFFFFFFFFFNXXXXXAXXXXXXXGGGG",
"GGGXXXXXXXBFFFFFFFFFFFFFFFFFFFFFcXXXX2zzzzzzzzXXXXXFFXXXXXDFFFFFFFFFFFFFFFFFFFFFFFFFFFFFFFFFFFFFFFFFFFFFFFFFFFD*XXXXpXXXXXXXGGGG",
"GGGXXXXXXXiFFFFFFFFFFFFFFFFFFFFFcXXXX2zzzzzzzzXXXXXFFqXXXXCFFFFFFFFFFFFFFFFFFFFFFFFFFFFFFFFFFFFFFFFFFFFFFFFFFFFxXXXX%XXXXXXXGGGG",
"GGGXXXXXXXXDFFFFFFFFFFFFFFFFFFFFcXXXX2zzzzzzz7XXXXXFFtXXXXCFFFFFFFFFFFFFFFFFFFFFFFFFFFFFFFFFFFFFFFFFFFFFFFFFFFFSXXXXXXXXXXXGGGGG",
"GGGGXXXXXXXcFFFFFFFFFFFFFFFFFFFFcXXXX2zzzzzzz5XXXX:FFtXXXXCFFFFFFFFFFFFFFFFFFFFFFFFFFFFFFFFFFFFFFFFFFFFFFFFFFFFFtXXXXXXXXXXGGGGG",
"GGGGXXXXXXX:FFFFFFFFFFFFFFFFFFFFcXXXX2zzzzzzz<XXXXiFFqXXXXCFFFFFFFFFFFFFFFFFFFFFFFFFFFFFFFFFFFFFFFFFFFFFFFFFFFFFNXXXXXXXXXXGGGGG",
"GGGGGXXXXXXXNFFFFFFFFFFFFFFFFFFFcXXXX2zzzzzz6XXXXXNFFXXXXXDFFFFFFFFFFFFFFFFFFFFFFFFFFFFFFFFFFFFFFFFFFFFFFFFFFFFFDXXXXXXXXXGGGGGG",
"GGGGGXXXXXXX:FFFFFFFFFFFFFFFFFFFcXXXX2zzzzzl XXXX*DFZXXXXXFFFFFFFFFFFFFFFFFFFFFFFFFFFFFFFFFFFFFFFFFFFFFFFFFFFFFFFiXXXXXXXXGGGGGG",
"GGGGGXXXXXXXXNFFFFFFFFFFFFFFFFFFcXXXX2zzzzz,XXXXXcFFnXXXXtFFFFFFFFFFFFFFFFFFFFFFFFFFFFFFFFFFFFFFFFFFFFFFFFFFFFFFFNXXXXXXXXGGGGGG",
"GGGGGGXXXXXXX:DFFFFFFFFFFFFFFFFFcXXXX2zzzl,XXXXX:DFFqXXXXxFFFFFFFFFFFFFFFFFFFFFFFFFFFFFFFFFFFFFFFFFFFFFFFFFFFFFFFSXXXXXXXGGGGGGG",
"GGGGGGXXXXXXXXcFFFFFFFFFFFFFFFFFcXXXX2zz3+XXXXXXCFFCXXXXXZFFFFFFFFFFFFFFFFFFFFFFFFFFFFFFFFFFFFFFFFFFFFFFFFFFFFFFFcXXXXXXXGGGGGGG",
"GGGGGGGXXXXXXX*SFFFFFFFFFFFFFFFFcXXXX,<OXXXXXXXNFFFtXXXX:FFFFFFFFFFFFFFFFFFFFFFFFFFFFFFFFFFFFFFFFFFFFFFFFFFFFFFFD*XXXXXXGGGGGGGG",
"GGGGGGGXXXXXXXXiFFFFFFFFFFFFFFFFcXXXXXXXXXXXXXxFFFnXXXXXNFFFFFFFFFFFFFFFFFFFFFFFFFFFFFFFFFFFFFFFFFFFFFFFFFFFFFFFiXXXXXXXGGGGGGGG",
"GGGGGGGGXXXXXXXXBFFFFFFFFFFFFFFFcXXXXXXXXXXXXNFFFZ*XXXX:DFFFFFFFFFFFFFFFFFFFFFFFFFFFFFFFFFFFFFFFFFFFFFFFFFFFFFFCXXXXXXXGGGGGGGGG",
"GGGGGGGGGXXXXXXX*DFFFFFFFFFFFFFFcXXXXXXXXXXqZFFFDqXXXXXNFFFFFFFFFFFFFFFFFFFFFFFFFFFFFFFFFFFFFFFFFFFFFFFFFFFFFFD:XXXXXXGGGGGGGGGG",
"GGGGGGGGGXXXXXXXXtFFFFFFFFFFFFFFcXXXXXXXXtNFFFFDqXXXXXtFFFFFFFFFFFFFFFFFFFFFFFFFFFFFFFFFFFFFFFFFFFFFFFFFFFFFFFiXXXXXXXGGGGGGGGGG",
"GGGGGGGGGGXXXXXXXXcFFFFFFFFFFFFFcXXXXqfNSFFFFFDqXXXXX*DFFFFFFFFFFFFFFFFFFFFFFFFFFFFFFFFFFFFFFFFFFFFFFFFFFFFFFNXXXXXXXGGGGGGGGGGG",
"GGGGGGGGGGXXXXXXXXXCFFFFFFFFFFFFCCCSFFFFFFFFFDqXXXXXXCFFFFFFFFFFFFFFFFFFFFFFFFFFFFFFFFFFFFFFFFFFFFFFFFFFFFFFZXXXXXXXXGGGGGGGGGGG",
"GGGGGGGGGGGXXXXXXXX*ZFFFFFFFFFFFFFFFFFFFFFFFSqXXXXXXNFFFFFFFFFFFFFFFFFFFFFFFFFFFFFFFFFFFFFFFFFFFFFFFFFFFFFFD*XXXXXXXGGGGGGGGGGGG",
"GGGGGGGGGGGGXXXXXXXXqDFFFFFFFFFFFFFFFFFFFFFN*XXXXXXNFFFFFFFFFFFFFFFFFFFFFFFFFFFFFFFFFFFFFFFFFFFFFFFFFFFFFFDqXXXXXXXGGGGGGGGGGGGG",
"GGGGGGGGGGGGGXXXXXXXXqDFFFFFFFFFFFFFFFFFFCtXXXXXXXNFFFFFFFFFFFFFFFFFFFFFFFFFFFFFFFFFFFFFFFFFFFFFFFFFFFFFFFtXXXXXXXGGGGGGGGGGGGGG",
"GGGGGGGGGGGGGXXXXXXXXXqDFFFFFFFFFFFFFFFCtXXXXXXXXNFFFFFFFFFFFFFFFFFFFFFFFFFFFFFFFFFFFFFFFFFFFFFFFFFFFFFFFfXXXXXXXXGGGGGGGGGGGGGG",
"GGGGGGGGGGGGGGXXXXXXXXXqDFFFFFFFFFFFDN:XXXXXXXX*BFFFFFFFFFFFFFFFFFFFFFFFFFFFFFFFFFFFFFFFFFFFFFFFFFFFFFFFfXXXXXXXXGGGGGGGGGGGGGGG",
"GGGGGGGGGGGGGGGXXXXXXXXXqDFFFFFFFFBfXXXXXXXXXXtSFFFFFFFFFFFFFFFFFFFFFFFFFFFFFFFFFFFFFFFFFFFFFFFFFFFFFFDfXXXXXXXXGGGGGGGGGGGGGGGG",
"GGGGGGGGGGGGGGGGXXXXXXXXXqDFFFFBf*XXXXXXXXXX:BFFFFFFFFFFFFFFFFFFFFFFFFFFFFFFFFFFFFFFFFFFFFFFFFFFFFFFFDqXXXXXXXXGGGGGGGGGGGGGGGGG",
"GGGGGGGGGGGGGGGGGXXXXXXXXX:VniXXXXXXXXXXXX*cFFFFFFFFFFFFFFFFFFFFFFFFFFFFFFFFFFFFFFFFFFFFFFFFFFFFFFFFSqXXXXXXXXGGGGGGGGGGGGGGGGGG",
"GGGGGGGGGGGGGGGGGGXXXXXXXXXXXXXXXXXXXXXX:NFFFFFFFFFFFFFFFFFFFFFFFFFFFFFFFFFFFFFFFFFFFFFFFFFFFFFFFFFC*XXXXXXXXGGGGGGGGGGGGGGGGGGG",
"GGGGGGGGGGGGGGGGGGGXXXXXXXXXXXXXXXXXXXfCFFFFFFFFFFFFFFFFFFFFFFFFFFFFFFFFFFFFFFFFFFFFFFFFFFFFFFFFFFcXXXXXXXXXGGGGGGGGGGGGGGGGGGGG",
"GGGGGGGGGGGGGGGGGGGGXXXXXXXXXXXXXXXiNDFFFFFFFFFFFFFFFFFFFFFFFFFFFFFFFFFFFFFFFFFFFFFFFFFFFFFFFFFFDtXXXXXXXXXGGGGGGGGGGGGGGGGGGGGG",
"GGGGGGGGGGGGGGGGGGGGGXXXXXXXXXX*iNDFFFFFFFFFFFFFFFFFFFFFFFFFFFFFFFFFFFFFFFFFFFFFFFFFFFFFFFFFFFFB*XXXXXXXXXGGGGGGGGGGGGGGGGGGGGGG",
"GGGGGGGGGGGGGGGGGGGGGGXXXXXXXXX*nFFFFFFFFFFFFFFFFFFFFFFFFFFFFFFFFFFFFFFFFFFFFFFFFFFFFFFFFFFFFStXXXXXXXXXXGGGGGGGGGGGGGGGGGGGGGGG",
"GGGGGGGGGGGGGGGGGGGGGGGXXXXXXXXXXqCFFFFFFFFFFFFFFFFFFFFFFFFFFFFFFFFFFFFFFFFFFFFFFFFFFFFFFFFDc*XXXXXXXXXXGGGGGGGGGGGGGGGGGGGGGGGG",
"GGGGGGGGGGGGGGGGGGGGGGGGXXXXXXXXXXXiSFFFFFFFFFFFFFFFFFFFFFFFFFFFFFFFFFFFFFFFFFFFFFFFFFFFFFN:XXXXXXXXXXXGGGGGGGGGGGGGGGGGGGGGGGGG",
"GGGGGGGGGGGGGGGGGGGGGGGGGGXXXXXXXXXXXfSFFFFFFFFFFFFFFFFFFFFFFFFFFFFFFFFFFFFFFFFFFFFFFFFFN:XXXXXXXXXXXGGGGGGGGGGGGGGGGGGGGGGGGGGG",
"GGGGGGGGGGGGGGGGGGGGGGGGGGGXXXXXXXXXXXXtCFFFFFFFFFFFFFFFFFFFFFFFFFFFFFFFFFFFFFFFFFFFFDc*XXXXXXXXXXXXGGGGGGGGGGGGGGGGGGGGGGGGGGGG",
"GGGGGGGGGGGGGGGGGGGGGGGGGGGGGXXXXXXXXXXXX:nDFFFFFFFFFFFFFFFFFFFFFFFFFFFFFFFFFFFFFFFBfXXXXXXXXXXXXXGGGGGGGGGGGGGGGGGGGGGGGGGGGGGG",
"GGGGGGGGGGGGGGGGGGGGGGGGGGGGGGXXXXXXXXXXXXXXiNDFFFFFFFFFFFFFFFFFFFFFFFFFFFFFFFFFZx:XXXXXXXXXXXXXXGGGGGGGGGGGGGGGGGGGGGGGGGGGGGGG",
"GGGGGGGGGGGGGGGGGGGGGGGGGGGGGGGGXXXXXXXXXXXXXXXinZFFFFFFFFFFFFFFFFFFFFFFFFFFSNf*XXXXXXXXXXXXXXXGGGGGGGGGGGGGGGGGGGGGGGGGGGGGGGGG",
"GGGGGGGGGGGGGGGGGGGGGGGGGGGGGGGGGGXXXXXXXXXXXXXXXX*icCSFFFFFFFFFFFFFFFFDCnf:XXXXXXXXXXXXXXXXXGGGGGGGGGGGGGGGGGGGGGGGGGGGGGGGGGGG",
"GGGGGGGGGGGGGGGGGGGGGGGGGGGGGGGGGGGGXXXXXXXXXXXXXXXXXXXXttxccccccccctt*XXXXXXXXXXXXXXXXXXXXGGGGGGGGGGGGGGGGGGGGGGGGGGGGGGGGGGGGG",
"GGGGGGGGGGGGGGGGGGGGGGGGGGGGGGGGGGGGGGXXXXXXXXXXXXXXXXXXXXXXXXXXXXXXXXXXXXXXXXXXXXXXXXXXXGGGGGGGGGGGGGGGGGGGGGGGGGGGGGGGGGGGGGGG",
"GGGGGGGGGGGGGGGGGGGGGGGGGGGGGGGGGGGGGGGGXXXXXXXXXXXXXXXXXXXXXXXXXXXXXXXXXXXXXXXXXXXXXXXGGGGGGGGGGGGGGGGGGGGGGGGGGGGGGGGGGGGGGGGG",
"GGGGGGGGGGGGGGGGGGGGGGGGGGGGGGGGGGGGGGGGGGGXXXXXXXXXXXXXXXXXXXXXXXXXXXXXXXXXXXXXXXXXGGGGGGGGGGGGGGGGGGGGGGGGGGGGGGGGGGGGGGGGGGGG",
"GGGGGGGGGGGGGGGGGGGGGGGGGGGGGGGGGGGGGGGGGGGGGGXXXXXXXXXXXXXXXXXXXXXXXXXXXXXXXXXXXGGGGGGGGGGGGGGGGGGGGGGGGGGGGGGGGGGGGGGGGGGGGGGG",
"GGGGGGGGGGGGGGGGGGGGGGGGGGGGGGGGGGGGGGGGGGGGGGGGGGXXXXXXXXXXXXXXXXXXXXXXXXXXXGGGGGGGGGGGGGGGGGGGGGGGGGGGGGGGGGGGGGGGGGGGGGGGGGGG",
"GGGGGGGGGGGGGGGGGGGGGGGGGGGGGGGGGGGGGGGGGGGGGGGGGGGGGGGGXXXXXXXXXXXXXXXGGGGGGGGGGGGGGGGGGGGGGGGGGGGGGGGGGGGGGGGGGGGGGGGGGGGGGGGG"
};
