/* XPM */
static char *bitcoin32[] = {
/* columns rows colors chars-per-pixel */
"33 32 130 2 ",
"   c #2D1E1F",
".  c #301E1F",
"X  c #321E1F",
"o  c #331E1F",
"O  c #3A1D1F",
"+  c #3C1D1F",
"@  c #231F20",
"#  c #241F20",
"$  c #251F20",
"%  c #261F20",
"&  c #291E20",
"*  c #291F20",
"=  c #2C1E20",
"-  c #301E20",
";  c #242021",
":  c #262021",
">  c #252122",
",  c #262223",
"<  c #282425",
"1  c #292526",
"2  c #2A2627",
"3  c #2B2728",
"4  c #2D292A",
"5  c #302C2D",
"6  c #363233",
"7  c #373334",
"8  c #383435",
"9  c #3A3637",
"0  c #3A3738",
"q  c #3B3738",
"w  c #3C3839",
"e  c #3E3A3B",
"r  c #3E3B3B",
"t  c #411D1F",
"y  c #441D1F",
"u  c #4B1D1E",
"i  c #501C1E",
"p  c #521C1E",
"a  c #5C1B1D",
"s  c #591C1E",
"d  c #5A1C1E",
"f  c #5C1C1E",
"g  c #631B1D",
"h  c #661B1D",
"j  c #691B1D",
"k  c #6D1A1D",
"l  c #7A1A1D",
"z  c #7E1A1C",
"x  c #413E3E",
"c  c #423F40",
"v  c #454142",
"b  c #454242",
"n  c #474344",
"m  c #4C4849",
"M  c #4F4C4D",
"N  c #524F50",
"B  c #565354",
"V  c #595657",
"C  c #5A5657",
"Z  c #5A5757",
"A  c #5A5758",
"S  c #5E5B5C",
"D  c #636161",
"F  c #676465",
"G  c #676565",
"H  c #6B6868",
"J  c #6B6869",
"K  c #6E6C6C",
"L  c #757273",
"P  c #757373",
"I  c #787676",
"U  c #7B797A",
"Y  c #7C797A",
"T  c #7D7A7B",
"R  c #7E7C7D",
"E  c #83191C",
"W  c #811A1C",
"Q  c #811A1D",
"!  c #84191C",
"~  c #85191C",
"^  c #88191C",
"/  c #8F191C",
"(  c #828081",
")  c #838081",
"_  c #838181",
"`  c #898788",
"'  c #8A8888",
"]  c #8D8B8B",
"[  c #8D8B8C",
"{  c #908E8E",
"}  c #908E8F",
"|  c #918F8F",
" . c #949293",
".. c #959393",
"X. c #979596",
"o. c #979696",
"O. c #989697",
"+. c #999798",
"@. c #9B9999",
"#. c #9E9C9D",
"$. c #9E9D9D",
"%. c #A8A7A7",
"&. c #ACAAAB",
"*. c #ACABAB",
"=. c #AFAEAE",
"-. c #B3B1B2",
";. c #BAB8B9",
":. c #BAB9B9",
">. c #C0C0C0",
",. c #C4C3C3",
"<. c #C7C6C7",
"1. c gray78",
"2. c #C8C7C7",
"3. c #CBCACA",
"4. c #CECECE",
"5. c #D2D1D1",
"6. c #D5D4D5",
"7. c #D5D5D5",
"8. c #D6D5D5",
"9. c #DEDDDE",
"0. c #E0DFDF",
"q. c gray89",
"w. c #E6E6E6",
"e. c #EAEAEA",
"r. c #F1F1F1",
"t. c #F4F4F4",
"y. c #F8F8F8",
"u. c #FBFBFB",
"i. c white",
"p. c None",
/* pixels */
"p.p.p.p.p.p.p.p.p.p.p.Z @ @ @ @ @ @ @ @ p.p.p.p.p.p.p.p.p.p.p.p.p.",
"p.p.p.p.p.p.p.p.@ @ @ 1 m J ' | ' P B 1 @ @ @ p.p.p.p.p.p.p.p.p.p.",
"p.p.p.p.p.p.@ @ @ 1 L e.i.i.i.i.i.i.i.i.#.@ @ @ @ p.p.p.p.p.p.p.p.",
"p.p.p.p.p.@ @ 5 _ 0.i.i.i.i.i.i.i.i.i.i.i.r.@.7 @ @ p.p.p.p.p.p.p.",
"p.p.p.p.@ @ @ 2.i.r.e @ e U q.$.1.i.i.i.i.i.i.i.m @ @ p.p.p.p.p.p.",
"p.p.p.@ @ b 7.i.i.r.X.@ t + @ 4 @ 7 I 4.i.i.i.i.e.G @ @ p.p.p.p.p.",
"p.p.@ @ @ 7.i.1.m @ @ @ s / ^ t @ * & @ ;.i.i.i.i.i.Z @ @ p.p.p.p.",
"p.p.@ 1 -.6.Z , . a f i l ! W ! g j E u q r.i.i.i.i.6.1 @ p.p.p.p.",
"p.@ @ P i.i.$.1 @ s / k - @ @ @ . p z / . _ i.i.i.i.i.*.@ @ p.p.p.",
"p.@ @ <.i.i.i.0.{   y : B  .+...L 8 $ O X 5 y.i.i.i.i.i.m @ p.p.p.",
"p.@ m i.i.i.i.i.q.@ @ +.i.4.q.i.i.i.,.2 @ @ 9.i.i.i.i.i.#.@ @ p.p.",
"p.@ >.i.i.u.r.i.} @ T *.m ] i.i.i.i.i.i.O.; A e.i.i.i.i.5.@ @ p.p.",
"@ 5 i.i.i.y.5 @ @ < i.2.q.i.i.i.i.i.i.i.i.r.6 5 e.i.i.i.i.@ @ p.p.",
"@ m i.i.i.i.e.e # 0 i.i.i.i.i.i.i.i.i.i.i.i.3.5 H i.i.i.i.V @ p.p.",
"@ Z i.i.i.i.q.1 @ @ V e.i.i.i.i.i.i.i.i.i.i.i.8.1 L i.i.i.| @ @ p.",
"@ Z i.i.i.u.( R @ @ 3 m 7.i.i.i.i.i.i.i.i.i.i.i.@.@ =.i.i.| @ @ p.",
"@ Z i.i.i.i.i.q.@ = @ 7 5 e.i.i.i.i.i.i.i.i.i.i.i.V e i.i.| @ @ p.",
"@ m i.i.i.i.i.q.@ d o 0 1 ) i.i.i.i.i.i.i.i.i.i.i.r.r Y i.N @ p.p.",
"@ 1 i.i.i.i.i.q.@ h Q % ' 5 i.i.i.i.i.i.i.i.i.i.i.i.} @ 7.@ @ p.p.",
"p.@ :.i.i.i.i.q.@ h / t F 0 :.i.i.i.i.i.i.i.i.i.i.i.0.1 S @ @ p.p.",
"p.@ e i.i.i.i.q.@ h / u V Z | i.i.i.i.i.i.i.i.i.i.i.i.L > @ @ p.p.",
"p.< @ <.i.i.i.q.@ h ~ X ` M o.i.i.i.i.i.i.i.i.i.i.i.i.e.4 @ p.p.p.",
"p.9 @ K i.i.i.q.@ t * e q.@ q.i.i.i.i.i.i.i.i.i.i.i.i.i.5 @ p.p.p.",
"p.p.@ , &.i.i.q.@ 0 G =.e D i.i.i.i.i.i.i.i.i.i.i.i.t.Z @ p.p.p.p.",
"p.p.n @ @ 2.i.i.i.i.r.v @ 7.i.i.i.i.i.i.i.i.i.i.i.i.} @ @ p.p.p.p.",
"p.p.p.6 @ b 4.w.-.K 1 C 7.i.i.i.i.i.i.i.i.i.i.i.u.#.4 @ p.p.p.p.p.",
"p.p.p.p., @ @ @ @ e *.i.i.i.i.i.i.i.i.i.i.i.i.i.Y @ @ p.p.p.p.p.p.",
"p.p.p.p.p.w @ , U e.i.i.i.i.i.i.i.i.i.i.i.i.;.Z @ @ p.p.p.p.p.p.p.",
"p.p.p.p.p.p.x @ @ e :.i.i.i.i.i.i.i.i.i.4.e @ ; @ p.p.p.p.p.p.p.p.",
"p.p.p.p.p.p.p.p.c ; @ e K [ &.&.%.| K v @ @ ; p.p.p.p.p.p.p.p.p.p.",
"p.p.p.p.p.p.p.p.p.p.9 @ @ @ @ @ @ @ @ @ 2 p.p.p.p.p.p.p.p.p.p.p.p.",
"p.p.p.p.p.p.p.p.p.p.p.p.p.p.p.p.p.p.p.p.p.p.p.p.p.p.p.p.p.p.p.p.p."
};
